<?xml version="1.0" standalone="no"?>
<!DOCTYPE svg PUBLIC "-//W3C//DTD SVG 20010904//EN"
 "http://www.w3.org/TR/2001/REC-SVG-20010904/DTD/svg10.dtd">
<svg version="1.0" xmlns="http://www.w3.org/2000/svg"
 width="260.000000pt" height="260.000000pt" viewBox="0 0 260.000000 260.000000"
 preserveAspectRatio="xMidYMid meet">
<metadata>
Created by potrace 1.11, written by Peter Selinger 2001-2013
</metadata>
<g transform="translate(0.000000,260.000000) scale(0.100000,-0.100000)"
fill="#000000" stroke="none">
<path d="M1150 2450 l0 -150 -27 0 c-83 0 -360 -104 -452 -169 l-28 -20 -53
64 c-28 36 -54 65 -57 65 -11 0 -143 -111 -143 -120 0 -5 4 -11 9 -14 4 -3 27
-30 51 -61 l42 -55 -52 -57 c-412 -451 -395 -1159 40 -1592 457 -453 1190
-453 1640 1 344 346 436 867 231 1304 -157 333 -481 586 -830 646 l-71 12 0
148 0 148 -150 0 -150 0 0 -150z m399 -316 c184 -46 334 -134 476 -279 516
-525 301 -1413 -399 -1651 -367 -125 -775 -29 -1047 247 -322 328 -381 835
-143 1230 154 256 442 441 743 479 101 13 262 2 370 -26z"/>
<path d="M1300 1660 l0 -482 33 20 c17 11 201 118 407 237 206 119 378 219
382 223 13 13 -93 142 -167 206 -163 139 -393 242 -602 271 l-53 7 0 -482z"/>
<path d="M1342 1058 c2 -18 11 -24 36 -26 29 -3 32 -1 32 22 0 23 -4 26 -36
26 -31 0 -35 -3 -32 -22z"/>
<path d="M1750 1035 c0 -14 -7 -28 -15 -31 -8 -4 -15 -15 -15 -25 0 -10 7 -19
15 -19 12 0 15 -14 15 -70 0 -63 2 -71 24 -85 15 -10 40 -15 63 -13 31 2 39 7
41 26 3 19 -1 22 -27 22 l-31 0 0 60 0 60 30 0 c23 0 30 4 30 20 0 16 -7 20
-30 20 -27 0 -30 3 -30 30 0 28 -3 30 -35 30 -31 0 -35 -3 -35 -25z"/>
<path d="M728 994 c-15 -8 -30 -25 -34 -38 -10 -40 12 -64 73 -82 52 -15 55
-18 38 -30 -23 -17 -30 -17 -77 0 l-38 14 0 -29 c0 -24 5 -29 36 -35 86 -16
157 16 157 72 0 33 -22 50 -74 59 -37 6 -57 20 -46 31 8 8 39 8 80 0 33 -6 37
-5 37 14 0 38 -98 54 -152 24z"/>
<path d="M973 995 c-17 -7 -36 -22 -42 -34 -14 -25 -14 -96 -1 -122 22 -39 95
-59 158 -43 16 5 22 14 22 35 0 30 -9 36 -27 18 -6 -6 -26 -9 -44 -7 -45 4
-67 44 -47 86 11 22 20 27 48 26 19 0 43 -4 53 -8 14 -7 17 -3 17 22 0 22 -6
31 -22 36 -37 9 -81 6 -115 -9z"/>
<path d="M1571 1001 c-7 -5 -31 -6 -52 -4 l-39 6 0 -142 0 -141 30 0 c28 0 30
2 30 40 l0 40 43 -6 c36 -5 48 -2 71 18 48 41 52 143 5 181 -23 18 -65 22 -88
8z m39 -50 c18 -12 18 -74 0 -96 -8 -9 -24 -15 -39 -13 -24 3 -26 8 -29 52 -3
50 6 66 38 66 8 0 22 -4 30 -9z"/>
<path d="M1160 895 l0 -105 30 0 29 0 3 73 3 72 43 3 c39 3 42 5 42 33 0 25
-4 29 -28 29 -15 0 -34 -6 -41 -12 -11 -10 -14 -10 -18 0 -3 6 -18 12 -34 12
l-29 0 0 -105z"/>
<path d="M1350 895 l0 -105 30 0 30 0 0 105 0 105 -30 0 -30 0 0 -105z"/>
<path d="M1930 965 c0 -33 2 -35 35 -35 33 0 35 2 35 35 0 33 -2 35 -35 35
-33 0 -35 -2 -35 -35z"/>
<path d="M1930 829 c0 -39 1 -40 33 -37 29 3 32 6 35 41 3 36 3 37 -32 37 -35
0 -36 -1 -36 -41z"/>
<path d="M938 629 c-10 -5 -18 -21 -18 -35 0 -17 -7 -28 -20 -31 -25 -7 -26
-19 -1 -33 11 -5 21 -22 23 -37 2 -22 9 -29 31 -31 15 -2 27 1 27 7 0 6 -7 11
-15 11 -9 0 -15 9 -15 25 0 14 -7 28 -15 31 -13 5 -13 8 0 21 8 8 15 23 15 34
0 11 7 22 15 25 18 7 20 24 3 24 -7 0 -21 -5 -30 -11z"/>
<path d="M1022 615 c4 -33 22 -33 26 0 2 18 -1 25 -13 25 -12 0 -15 -7 -13
-25z"/>
<path d="M1070 609 c0 -38 24 -35 28 4 2 19 -1 27 -12 27 -11 0 -16 -10 -16
-31z"/>
<path d="M1130 626 c0 -10 9 -16 21 -16 24 0 21 23 -4 28 -10 2 -17 -3 -17
-12z"/>
<path d="M1338 635 c-8 -8 3 -55 13 -55 5 0 9 14 9 30 0 28 -9 38 -22 25z"/>
<path d="M1384 618 c3 -13 6 -26 6 -30 0 -5 5 -8 10 -8 6 0 10 14 10 30 0 21
-5 30 -16 30 -12 0 -15 -6 -10 -22z"/>
<path d="M1730 631 c0 -5 7 -11 15 -15 8 -3 15 -14 15 -24 0 -11 7 -25 15 -32
13 -11 13 -14 0 -27 -8 -8 -15 -23 -15 -34 0 -10 -7 -19 -15 -19 -8 0 -15 -5
-15 -11 0 -6 12 -9 28 -7 21 2 28 9 30 32 2 18 11 30 23 33 25 7 24 29 -1 36
-13 3 -20 14 -20 29 0 13 -5 29 -12 36 -14 14 -48 16 -48 3z"/>
<path d="M1590 614 c0 -12 6 -15 23 -11 12 4 29 2 37 -3 12 -8 11 -11 -7 -16
-29 -8 -30 -34 -2 -34 12 0 19 -5 16 -12 -2 -7 -18 -13 -35 -13 -24 0 -32 -4
-32 -17 0 -14 8 -18 38 -18 21 0 43 5 50 12 15 15 16 58 2 58 -6 0 -6 7 1 19
21 33 4 51 -46 51 -35 0 -45 -4 -45 -16z"/>
<path d="M1130 545 c0 -48 3 -56 18 -53 13 3 17 14 17 53 0 39 -4 50 -17 53
-15 3 -18 -5 -18 -53z"/>
<path d="M1200 544 c0 -41 4 -54 15 -54 11 0 15 11 15 40 0 33 3 40 20 40 17
0 20 -7 20 -40 0 -29 4 -40 16 -40 12 0 14 10 12 53 l-3 52 -47 1 -48 2 0 -54z"/>
<path d="M1450 581 c0 -15 6 -21 21 -21 25 0 22 33 -4 38 -12 2 -17 -3 -17
-17z"/>
<path d="M1450 509 c0 -14 5 -19 17 -17 26 5 29 38 4 38 -15 0 -21 -6 -21 -21z"/>
</g>
</svg>
